<!DOCTYPE svg PUBLIC "-//W3C//DTD SVG 1.1//EN" "http://www.w3.org/Graphics/SVG/1.1/DTD/svg11.dtd">
<!-- Uploaded to: SVG Repo, www.svgrepo.com, Transformed by: SVG Repo Mixer Tools -->
<svg width="800px" height="800px" viewBox="-2.2 -2.2 26.40 26.40" version="1.1" xmlns="http://www.w3.org/2000/svg" xmlns:xlink="http://www.w3.org/1999/xlink" fill="#000000">
<g id="SVGRepo_bgCarrier" stroke-width="0">
<rect x="-2.2" y="-2.2" width="26.40" height="26.40" rx="0" fill="#ffffff" strokewidth="0"/>
</g>
<g id="SVGRepo_tracerCarrier" stroke-linecap="round" stroke-linejoin="round"/>
<g id="SVGRepo_iconCarrier"> <title>multimedia / 4 - multimedia, audio, music, sound, max, speaker, volume icon</title> <g id="Free-Icons" stroke="none" stroke-width="1" fill="none" fill-rule="evenodd" stroke-linecap="round" stroke-linejoin="round"> <g transform="translate(-968.000000, -304.000000)" id="Group" stroke="#000000" stroke-width="2"> <g transform="translate(967.000000, 302.000000)" id="Shape"> <path d="M18.22291,4.24772391 C20.3461043,5.89188107 21.7500001,8.74918751 21.7500001,12 C21.7500001,15.2055503 20.384926,18.0284761 18.3111758,19.6828962"> </path> <path d="M16.25,16.5 C17.434,15.6838509 18.25,13.984472 18.25,12.0055901 C18.25,10.0267081 17.434,8.32732919 16.25,7.5"> </path> <path d="M4.254916,9 L6.24999966,9 L11.2499997,3 L13.2499997,3 L13.2499997,20.9958147 L11.2499997,20.9958147 L6.24999966,15 L4.254916,15 C3.1503465,15 2.254916,14.1045695 2.254916,13 L2.254916,11 C2.254916,9.8954305 3.1503465,9 4.254916,9 Z"> </path> </g> </g> </g> </g>
</svg>